<svg width="259" height="85" viewBox="0 0 259 85" fill="none" xmlns="http://www.w3.org/2000/svg">
<path d="M53.088 40.856C53.6427 40.856 54.0693 41.1333 54.368 41.688C54.7093 42.2 54.88 42.8613 54.88 43.672C54.88 44.6533 54.7307 45.4213 54.432 45.976C54.1333 46.5307 53.664 47.0213 53.024 47.448C50.5067 49.112 46.496 51.8427 40.992 55.64C39.328 64.472 37.1733 71.4267 34.528 76.504C31.8827 81.5813 28.5333 84.12 24.48 84.12C22.304 84.12 20.5333 83.4373 19.168 82.072C17.8027 80.7493 17.12 79 17.12 76.824C17.12 74.8187 17.568 72.792 18.464 70.744C19.36 68.696 21.024 66.328 23.456 63.64C25.9307 60.952 29.408 57.88 33.888 54.424L34.08 53.208C30.7093 54.616 27.4027 55.32 24.16 55.32C19.3813 55.32 15.1787 54.4027 11.552 52.568C7.92533 50.6907 5.10933 48.0453 3.104 44.632C1.09867 41.2187 0.0960002 37.2507 0.0960002 32.728C0.0960002 26.4133 1.29067 20.8453 3.68 16.024C6.06933 11.16 9.35467 7.40533 13.536 4.76C17.76 2.072 22.4747 0.727997 27.68 0.727997C32.672 0.727997 36.4053 1.90133 38.88 4.248C41.3973 6.552 42.656 9.624 42.656 13.464C42.656 15.9813 42.1867 18.008 41.248 19.544C40.352 21.0373 39.0507 21.784 37.344 21.784C36.192 21.784 35.2533 21.5067 34.528 20.952C33.8453 20.3973 33.504 19.6293 33.504 18.648C33.504 18.2213 33.5893 17.496 33.76 16.472C34.016 15.2773 34.144 14.3387 34.144 13.656C34.144 11.864 33.5893 10.4773 32.48 9.496C31.4133 8.51466 29.6 8.024 27.04 8.024C23.9253 8.024 21.024 8.92 18.336 10.712C15.6907 12.504 13.5573 15.192 11.936 18.776C10.3147 22.3173 9.504 26.584 9.504 31.576C9.504 36.696 10.8907 40.664 13.664 43.48C16.48 46.2533 20.5333 47.64 25.824 47.64C28.768 47.64 31.84 46.9787 35.04 45.656L35.936 37.848H29.408C28.2133 37.848 27.296 37.5707 26.656 37.016C26.016 36.4187 25.696 35.4587 25.696 34.136C25.696 32.9413 26.016 32.0027 26.656 31.32C27.296 30.6373 28.1493 30.296 29.216 30.296H41.184C42.1227 30.296 42.8907 30.616 43.488 31.256C44.128 31.8533 44.384 32.728 44.256 33.88C44.128 35.2453 43.7013 38.3387 42.976 43.16L42.272 48.024C45.6853 45.464 48.8 43.2453 51.616 41.368C52.1707 41.0267 52.6613 40.856 53.088 40.856ZM25.184 77.912C26.2933 77.912 27.5093 76.6533 28.832 74.136C30.1547 71.6187 31.392 67.5653 32.544 61.976C29.3013 64.7493 26.9547 67.2453 25.504 69.464C24.096 71.7253 23.392 73.7093 23.392 75.416C23.392 77.08 23.9893 77.912 25.184 77.912ZM58.194 55.32C55.5487 55.32 53.4367 54.36 51.858 52.44C50.2793 50.52 49.49 48.0027 49.49 44.888C49.49 41.4747 50.2793 38.2533 51.858 35.224C53.4367 32.152 55.5273 29.6987 58.13 27.864C60.7753 25.9867 63.57 25.048 66.514 25.048C67.4527 25.048 68.0713 25.24 68.37 25.624C68.7113 25.9653 68.9887 26.6053 69.202 27.544C70.098 27.3733 71.0367 27.288 72.018 27.288C74.1087 27.288 75.154 28.0347 75.154 29.528C75.154 30.424 74.834 32.5573 74.194 35.928C73.2127 40.8347 72.722 44.248 72.722 46.168C72.722 46.808 72.8713 47.32 73.17 47.704C73.5113 48.088 73.938 48.28 74.45 48.28C75.2607 48.28 76.242 47.768 77.394 46.744C78.546 45.6773 80.1033 43.9707 82.066 41.624C82.578 41.0267 83.154 40.728 83.794 40.728C84.3487 40.728 84.7753 40.984 85.074 41.496C85.4153 42.008 85.586 42.712 85.586 43.608C85.586 45.3147 85.1807 46.6373 84.37 47.576C82.6207 49.752 80.7647 51.5867 78.802 53.08C76.8393 54.5733 74.9407 55.32 73.106 55.32C71.698 55.32 70.3967 54.8507 69.202 53.912C68.05 52.9307 67.1753 51.608 66.578 49.944C64.3593 53.528 61.5647 55.32 58.194 55.32ZM60.498 48.856C61.4367 48.856 62.3327 48.3013 63.186 47.192C64.0393 46.0827 64.658 44.6107 65.042 42.776L67.41 31C65.618 31.0427 63.954 31.7253 62.418 33.048C60.9247 34.328 59.73 36.0347 58.834 38.168C57.938 40.3013 57.49 42.5627 57.49 44.952C57.49 46.2747 57.746 47.256 58.258 47.896C58.8127 48.536 59.5593 48.856 60.498 48.856ZM84.9285 55.32C83.3072 55.32 82.1552 54.4667 81.4725 52.76C80.8325 51.0533 80.5125 48.3227 80.5125 44.568C80.5125 39.0213 81.3018 33.752 82.8805 28.76C83.2645 27.5227 83.8832 26.6267 84.7365 26.072C85.6325 25.4747 86.8698 25.176 88.4485 25.176C89.3018 25.176 89.8992 25.2827 90.2405 25.496C90.5818 25.7093 90.7525 26.1147 90.7525 26.712C90.7525 27.3947 90.4325 28.9307 89.7925 31.32C89.3658 33.0267 89.0245 34.52 88.7685 35.8C88.5125 37.08 88.2992 38.6587 88.1285 40.536C89.5365 36.8667 91.1152 33.88 92.8645 31.576C94.6138 29.272 96.3205 27.6293 97.9845 26.648C99.6912 25.6667 101.249 25.176 102.657 25.176C105.43 25.176 106.817 26.5627 106.817 29.336C106.817 29.8907 106.625 31.2347 106.241 33.368C105.899 35.0747 105.729 36.1413 105.729 36.568C105.729 38.0613 106.262 38.808 107.329 38.808C108.523 38.808 110.059 37.8693 111.937 35.992C112.491 35.4373 113.067 35.16 113.665 35.16C114.219 35.16 114.646 35.416 114.944 35.928C115.286 36.3973 115.457 37.0373 115.457 37.848C115.457 39.4267 115.03 40.664 114.177 41.56C112.982 42.7973 111.574 43.864 109.953 44.76C108.374 45.6133 106.689 46.04 104.897 46.04C102.635 46.04 100.907 45.464 99.7125 44.312C98.5605 43.16 97.9845 41.6027 97.9845 39.64C97.9845 39 98.0485 38.36 98.1765 37.72C98.2618 36.8667 98.3045 36.2907 98.3045 35.992C98.3045 35.3093 98.0698 34.968 97.6005 34.968C96.9605 34.968 96.1072 35.6933 95.0405 37.144C94.0165 38.552 92.9925 40.4293 91.9685 42.776C90.9445 45.1227 90.1125 47.5973 89.4725 50.2C89.0032 52.2053 88.4485 53.5707 87.8085 54.296C87.2112 54.9787 86.2512 55.32 84.9285 55.32ZM117.382 55.32C114.736 55.32 112.624 54.36 111.046 52.44C109.467 50.52 108.678 48.0027 108.678 44.888C108.678 41.4747 109.467 38.2533 111.046 35.224C112.624 32.152 114.715 29.6987 117.318 27.864C119.963 25.9867 122.758 25.048 125.702 25.048C126.64 25.048 127.259 25.24 127.558 25.624C127.899 25.9653 128.176 26.6053 128.39 27.544C129.286 27.3733 130.224 27.288 131.206 27.288C133.296 27.288 134.342 28.0347 134.342 29.528C134.342 30.424 134.022 32.5573 133.382 35.928C132.4 40.8347 131.91 44.248 131.91 46.168C131.91 46.808 132.059 47.32 132.358 47.704C132.699 48.088 133.126 48.28 133.638 48.28C134.448 48.28 135.43 47.768 136.582 46.744C137.734 45.6773 139.291 43.9707 141.254 41.624C141.766 41.0267 142.342 40.728 142.982 40.728C143.536 40.728 143.963 40.984 144.262 41.496C144.603 42.008 144.774 42.712 144.774 43.608C144.774 45.3147 144.368 46.6373 143.558 47.576C141.808 49.752 139.952 51.5867 137.99 53.08C136.027 54.5733 134.128 55.32 132.294 55.32C130.886 55.32 129.584 54.8507 128.39 53.912C127.238 52.9307 126.363 51.608 125.766 49.944C123.547 53.528 120.752 55.32 117.382 55.32ZM119.686 48.856C120.624 48.856 121.52 48.3013 122.374 47.192C123.227 46.0827 123.846 44.6107 124.23 42.776L126.598 31C124.806 31.0427 123.142 31.7253 121.606 33.048C120.112 34.328 118.918 36.0347 118.022 38.168C117.126 40.3013 116.678 42.5627 116.678 44.952C116.678 46.2747 116.934 47.256 117.446 47.896C118 48.536 118.747 48.856 119.686 48.856ZM172.34 40.856C172.895 40.856 173.321 41.1333 173.62 41.688C173.961 42.2 174.132 42.8613 174.132 43.672C174.132 44.6533 173.983 45.4213 173.684 45.976C173.385 46.5307 172.916 47.0213 172.276 47.448C168.607 49.9227 165.919 51.7573 164.212 52.952L160.116 55.704C158.495 64.536 156.361 71.4693 153.716 76.504C151.113 81.5813 147.785 84.12 143.732 84.12C141.556 84.12 139.785 83.4373 138.42 82.072C137.055 80.7493 136.372 79 136.372 76.824C136.372 73.7947 137.567 70.5307 139.956 67.032C142.345 63.576 146.825 59.3093 153.396 54.232L153.78 51.736C153.055 52.888 152.095 53.784 150.9 54.424C149.748 55.0213 148.596 55.32 147.444 55.32C144.799 55.32 142.687 54.36 141.108 52.44C139.529 50.52 138.74 48.0027 138.74 44.888C138.74 41.4747 139.529 38.2533 141.108 35.224C142.687 32.152 144.777 29.6987 147.38 27.864C150.025 25.9867 152.82 25.048 155.764 25.048C156.703 25.048 157.321 25.24 157.62 25.624C157.961 25.9653 158.239 26.6053 158.452 27.544C159.263 27.3733 160.201 27.288 161.268 27.288C162.335 27.288 163.081 27.4587 163.508 27.8C163.977 28.0987 164.212 28.7173 164.212 29.656C164.212 30.168 164.191 30.5733 164.148 30.872C163.977 32.1947 163.444 35.544 162.548 40.92C162.377 41.944 162.185 43.0747 161.972 44.312C161.801 45.5067 161.609 46.7867 161.396 48.152C164.681 45.592 167.839 43.3307 170.868 41.368C171.423 41.0267 171.913 40.856 172.34 40.856ZM149.748 48.856C150.729 48.856 151.668 48.2587 152.564 47.064C153.46 45.8693 154.1 44.1627 154.484 41.944L156.532 31C154.783 31.0427 153.161 31.7253 151.668 33.048C150.175 34.328 148.98 36.0347 148.084 38.168C147.188 40.3013 146.74 42.5627 146.74 44.952C146.74 46.2747 146.996 47.256 147.508 47.896C148.063 48.536 148.809 48.856 149.748 48.856ZM144.436 77.912C145.503 77.912 146.697 76.632 148.02 74.072C149.385 71.512 150.687 67.4373 151.924 61.848C148.639 64.664 146.271 67.2027 144.82 69.464C143.369 71.7253 142.644 73.7093 142.644 75.416C142.644 76.1413 142.772 76.7387 143.028 77.208C143.327 77.6773 143.796 77.912 144.436 77.912ZM193.109 42.648C193.664 42.648 194.09 42.904 194.389 43.416C194.73 43.928 194.901 44.632 194.901 45.528C194.901 47.064 194.538 48.3867 193.813 49.496C192.618 51.3307 191.04 52.76 189.077 53.784C187.157 54.808 184.853 55.32 182.165 55.32C178.069 55.32 174.89 54.104 172.629 51.672C170.368 49.1973 169.237 45.8693 169.237 41.688C169.237 38.744 169.856 36.0133 171.093 33.496C172.33 30.936 174.037 28.9093 176.213 27.416C178.432 25.9227 180.928 25.176 183.701 25.176C186.176 25.176 188.16 25.9227 189.653 27.416C191.146 28.8667 191.893 30.8507 191.893 33.368C191.893 36.312 190.826 38.8507 188.693 40.984C186.602 43.0747 183.018 44.7387 177.941 45.976C178.965 47.9387 180.693 48.92 183.125 48.92C184.874 48.92 186.304 48.5147 187.413 47.704C188.565 46.8933 189.888 45.528 191.381 43.608C191.893 42.968 192.469 42.648 193.109 42.648ZM182.613 31.448C181.034 31.448 179.69 32.3653 178.581 34.2C177.514 36.0347 176.981 38.2533 176.981 40.856V40.984C179.498 40.3867 181.482 39.4907 182.933 38.296C184.384 37.1013 185.109 35.7147 185.109 34.136C185.109 33.3253 184.874 32.6853 184.405 32.216C183.978 31.704 183.381 31.448 182.613 31.448ZM216.158 36.76C218.334 37.0587 220.147 37.9547 221.598 39.448C223.091 40.9413 223.838 42.8187 223.838 45.08C223.838 47.256 223.176 49.112 221.854 50.648C220.531 52.184 218.739 53.3573 216.478 54.168C214.259 54.936 211.827 55.32 209.182 55.32C204.531 55.32 201.032 54.5093 198.686 52.888C196.382 51.2667 195.23 49.24 195.23 46.808C195.23 45.4 195.571 44.312 196.254 43.544C196.936 42.7333 197.854 42.328 199.006 42.328C199.987 42.328 200.712 42.584 201.182 43.096C201.694 43.5653 202.12 44.3973 202.462 45.592C202.76 46.744 203.379 47.6187 204.318 48.216C205.256 48.8133 206.707 49.112 208.67 49.112C210.547 49.112 212.083 48.7707 213.278 48.088C214.515 47.3627 215.134 46.2747 215.134 44.824C215.134 43.3307 214.558 42.2427 213.406 41.56C212.254 40.8347 210.462 40.4293 208.03 40.344C207.134 40.3013 206.451 40.0027 205.982 39.448C205.555 38.8507 205.342 38.1467 205.342 37.336C205.342 36.312 205.512 35.5867 205.854 35.16C206.238 34.6907 206.878 34.3707 207.774 34.2C210.59 33.7733 212.616 32.9627 213.854 31.768C215.134 30.5307 215.774 29.0587 215.774 27.352C215.774 25.0053 214.152 23.832 210.91 23.832C207.326 23.832 205.214 25.24 204.574 28.056C204.275 29.208 203.827 30.04 203.23 30.552C202.675 31.0213 201.886 31.256 200.862 31.256C199.71 31.256 198.814 30.936 198.174 30.296C197.576 29.6133 197.278 28.7173 197.278 27.608C197.278 25.9013 197.875 24.28 199.07 22.744C200.264 21.208 201.95 19.9707 204.126 19.032C206.344 18.0933 208.926 17.624 211.87 17.624C215.966 17.624 219.102 18.4133 221.278 19.992C223.454 21.5707 224.542 23.9173 224.542 27.032C224.542 29.08 223.752 31 222.174 32.792C220.638 34.5413 218.632 35.864 216.158 36.76ZM244.864 24.472C243.626 24.472 242.73 24.4933 242.176 24.536C241.621 26.4133 241.002 28.9733 240.32 32.216C245.824 32.5147 250.005 33.6453 252.864 35.608C255.722 37.5707 257.152 40.2373 257.152 43.608C257.152 45.8267 256.576 47.832 255.424 49.624C254.314 51.3733 252.672 52.76 250.496 53.784C248.32 54.808 245.76 55.32 242.816 55.32C238.848 55.32 235.648 54.552 233.216 53.016C230.826 51.48 229.632 49.4107 229.632 46.808C229.632 45.4 229.952 44.312 230.592 43.544C231.274 42.7333 232.213 42.328 233.408 42.328C234.346 42.328 235.072 42.584 235.584 43.096C236.096 43.5653 236.522 44.3973 236.864 45.592C237.589 48.1947 239.786 49.496 243.456 49.496C245.034 49.496 246.336 49.0267 247.36 48.088C248.384 47.1067 248.896 45.912 248.896 44.504C248.896 40.7493 244.906 38.744 236.928 38.488C235.221 38.4453 233.984 38.168 233.216 37.656C232.49 37.144 232.128 36.3547 232.128 35.288C232.128 34.776 232.192 34.2427 232.32 33.688L233.024 30.616C233.28 29.3787 233.706 27.48 234.304 24.92H234.176C233.322 24.92 232.64 24.728 232.128 24.344C231.616 23.9173 231.36 23.3413 231.36 22.616C231.36 20.5253 232.384 19.16 234.432 18.52C236.352 17.9227 239.808 17.624 244.8 17.624C248.384 17.624 250.986 17.688 252.608 17.816C254.229 17.9013 255.488 18.0507 256.384 18.264C257.237 18.4773 257.834 18.776 258.176 19.16C258.517 19.5013 258.688 20.0347 258.688 20.76C258.688 22.2107 258.389 23.256 257.792 23.896C257.237 24.4933 256.277 24.792 254.912 24.792C254.229 24.792 252.906 24.7493 250.944 24.664C247.36 24.536 245.333 24.472 244.864 24.472Z" fill="white"/>
</svg>
